#!OML:ASF E:/inclinewalkrobotboard/Project1/Captureday1/Session1/subject1.ASF
:FULLY-SPECIFIED
:DEGREES
13
root 0 0 0 1.8669349697645838 -10.635709392969764 0.8805599032929924
lowerback -0.2472539123815971 -1.6973729473043977 -2.6775565871062597
upperback -0.422213827939059 -2.2185184467119172 1.6704702010829857
thorax -0.18385980657658885 -1.1093773537139142 3.151331704709377
lowerneck -25.02061678377519 -1.7898891711335658 -7.8249730469237235
upperneck 27.255052368097452 -0.005443133349108065 2.1924557135121394
head 13.337440291685024 -0.6296426589506776 2.278666493718319
rclavicle -5.180067123899342E-15 2.0720697179167535E-15
rhumerus -31.841543463569867 -3.6121051065937797 -81.22272598012593
rradius 30.82556838586943
rwrist 18.97440857066114
rhand -17.8478384342966 9.307756270445761
rfingers 7.125019999999926
rthumb 8.411759520248514 -20.460493377216956
lclavicle -7.0806966529099665E-15 4.2528361021739656E-15
lhumerus -21.795742727867218 -2.2008917937760377 91.79100635675223
lradius 61.832309120090976
lwrist 2.715988372153743
lhand -27.974143290912007 21.305645883054797
lfingers 7.125020000000007
lthumb -1.3869017508753911 51.3247082424847
rfemur -16.880919183115537 -0.22007445976289652 21.934929193524102
rtibia 72.14420099945931
rfoot 0.9932073247604691 -5.518204358723352
rtoes 8.398968250640282
lfemur -12.770717180820874 -2.951228378401788 -24.300429292561976
ltibia 28.23361738690523
lfoot -10.448983282603093 -0.158833084112592
ltoes 10.197371869074658
14
root 0 0 0 1.896019444223057 -10.64799249438549 0.8701991201075834
lowerback -0.2330175171913751 -1.7146451356986196 -2.671109491591795
upperback -0.3699930554012573 -2.2424410294682247 1.6673487127816702
thorax -0.1302262294332548 -1.1237974628608616 3.1439088183508326
lowerneck -24.932608177070435 -1.7649256269229414 -7.852119470389971
upperneck 27.519174176915584 0.02895490761234598 2.167415990289879
head 13.40965154309478 -0.6211086163406291 2.2823357887726483
rclavicle -3.544537188298019E-15 1.8180179666413997E-15
rhumerus -32.01882519818734 -3.976308521285855 -81.06384641745744
rradius 30.68191815431999
rwrist 19.092559018280095
rhand -17.764447073801385 9.296461693224776
rfingers 7.125019999999925
rthumb 8.4918455961876 -20.468692176833233
lclavicle -6.590767558476022E-15 3.960711914152562E-15
lhumerus -22.096247959036827 -3.257617332812708 91.80990444128861
lradius 62.29246470342477
lwrist 3.04831580851047
lhand -27.837135419353242 21.598681971092773
lfingers 7.1250200000000055
lthumb -1.2556032119805502 51.63261317795787
rfemur -24.85962971843452 -1.2552807547597133 19.81610016803384
rtibia 71.62527051714395
rfoot -3.4974103124691815 -6.880323298046692
rtoes 5.166070608421869
lfemur -6.941045489550357 -3.3553650010434697 -27.00119958807021
ltibia 23.531407282124242
lfoot -16.65515140604394 2.136014864167162
ltoes 9.073860132873424
15
root 0 0 0 1.9257599471256543 -10.679789000193033 0.8719967088536551
lowerback -0.24452968763500915 -1.7371309030462792 -2.6715106445018235
upperback -0.3265376323713629 -2.2722626022921033 1.665579130245358
thorax -0.07166812965841074 -1.141094592588458 3.142478041304933
lowerneck -24.94702062731707 -1.7608057108817987 -7.887155523460895
upperneck 27.66849438781705 0.041729902311478106 2.164734236525801
head 13.457244372526276 -0.6175617558247001 2.2895639483204517
rclavicle -3.112195604787567E-15 1.5691826653498802E-15
rhumerus -32.14126330524383 -3.686126276818395 -80.80695729232218
rradius 30.53453475397924
rwrist 19.112828360192843
rhand -17.821862085851446 9.311861329454208
rfingers 7.125019999999926
rthumb 8.436910542741261 -20.459768324840024
lclavicle -6.360338833227245E-15 3.693890952726311E-15
lhumerus -22.60363135195572 -4.588367330174898 91.90648270948695
lradius 62.767035597121286
lwrist 3.423573499741477
lhand -27.672483633577997 21.819709419238848
lfingers 7.125020000000002
lthumb -1.0988757238462972 51.87003057926311
rfemur -28.24169070600251 -1.0988349755231503 19.975905902993656
rtibia 65.60346958056846
rfoot -4.71553334617554 -7.720468323391117
rtoes 2.815636752564239
lfemur -1.7844756052160324 -3.640286645881477 -28.588370232595793
ltibia 20.47852426017768
lfoot -20.536676904770253 2.44088518982927
ltoes 6.059502369642299
16
root 0 0 0 1.9531984515768626 -10.716756843550254 0.8776284784798912
lowerback -0.2626145279105565 -1.7600664033770572 -2.6741404295500186
upperback -0.28791905709053595 -2.3030131992583094 1.6650616070065598
thorax -0.0157952954668088 -1.1584564612802266 3.1439669705317126
lowerneck -24.990152520019638 -1.7609937409637098 -7.9216439191114985
upperneck 27.776084935927642 0.05014535843657808 2.163255209936527
head 13.496222129521769 -0.6143924644307874 2.2959045446967483
rclavicle -2.8099256226775204E-15 1.2413051723454244E-15
rhumerus -32.350377625426816 -3.2269233607639722 -80.37927477291264
rradius 30.28058038083701
rwrist 19.181969669145523
rhand -17.902645742019885 9.317086636778695
rfingers 7.125019999999929
rthumb 8.35977280722159 -20.466246503381818
lclavicle -5.469804246376477E-15 3.3987489941310457E-15
lhumerus -22.98214158669735 -5.779250894182394 91.9130491191631
lradius 63.23371428752476
lwrist 3.7920280383509617
lhand -27.494696061079804 22.08174585200813
lfingers 7.125019999999998
lthumb -0.9291646533305622 52.14939080409154
rfemur -30.138964514493452 0.03387719507279563 19.057210387198772
rtibia 55.807629277900006
rfoot -4.648179837190023 -9.20286991888184
rtoes 0.13410279995693397
lfemur 1.921837462301905 -3.823570353168601 -29.39866709324691
ltibia 18.219371362274597
lfoot -21.914071105609818 1.7848480943864935
ltoes 3.033839091815821
17
root 0 0 0 1.9741007937302009 -10.746667684861917 0.8895078444485142
lowerback -0.27325883452166777 -1.7792605971390467 -2.6782170760541453
upperback -0.2612736383621909 -2.3287440147945624 1.6720378198211663
thorax 0.021345810933936837 -1.1728369969460135 3.1542367829857683
lowerneck -25.08825459713602 -1.7639772567104735 -7.939828503879731
upperneck 27.7164653242735 0.056717101916407775 2.169419264143575
head 13.487682451089283 -0.6072594700133096 2.3001400636737084
rclavicle -1.8303184446391376E-15 5.625687281068509E-16
rhumerus -32.71290775877763 -2.8281815828693424 -79.7461365264674
rradius 29.877331462834523
rwrist 19.35981477543605
rhand -17.953143532799196 9.303375629156466
rfingers 7.125019999999933
rthumb 8.311279886026389 -20.498736854810353
lclavicle -3.6684110226374284E-15 2.821635350792898E-15
lhumerus -23.04863378797995 -6.765926461108567 91.72676961675873
lradius 63.75187548168962
lwrist 4.169250135646639
lhand -27.32707935050051 22.526653495748228
lfingers 7.125019999999993
lthumb -0.766871002818962 52.612194223466545
rfemur -32.23460762092313 1.678814275629895 17.517442206810127
rtibia 43.58902546507598
rfoot -4.270078303326567 -10.931902926278159
rtoes -2.569702953106469
lfemur 5.940478331807116 -4.110241233136296 -29.98749879394375
ltibia 16.09815148553704
lfoot -22.055135819146805 0.5852943728116085
ltoes -0.3343501958420134
18
root 0 0 0 2.0017195728755657 -10.788150057354777 0.9269055256067474
lowerback -0.2517634565742122 -1.8139486814755628 -2.680989542606216
upperback -0.22385973817343147 -2.3739391573392474 1.714483125281141
thorax 0.053949327973986216 -1.197963253942126 3.202635244764025
lowerneck -25.484117260756577 -1.7727576557582716 -7.917592902318306
upperneck 27.03864472137871 0.07514489173419214 2.190715237055233
head 13.308673649572452 -0.5746203227551646 2.29585634052461
rclavicle 9.191417458828973E-16 -9.884825690837114E-16
rhumerus -33.48069843829873 -2.637912121290229 -78.6571912348371
rradius 29.14159008473116
rwrist 19.863036163182095
rhand -17.915459677938667 9.18033077795648
rfingers 7.1250199999999415
rthumb 8.346885084413296 -20.654390393172676
lclavicle 3.0188653997886276E-16 1.7088294734391025E-15
lhumerus -22.76744937597878 -8.053256462306852 91.32193361174258
lradius 64.64294557021817
lwrist 4.6146809759663086
lhand -27.208554247312854 23.33474210612114
lfingers 7.125019999999985
lthumb -0.6475075301696105 53.4408954067607
rfemur -33.31086348792496 3.437857606554796 17.070170290060513
rtibia 31.909494214785706
rfoot -4.744940242495231 -12.175638934757353
rtoes -4.311537604535668
lfemur 15.056927067176206 -4.863920727477494 -30.274876219428307
ltibia 14.225946846375438
lfoot -17.68354751373062 -3.1244468690930836
ltoes -6.994496179475078
19
root 0 0 0 2.0164178429532997 -10.78659038159505 0.9621687994902618
lowerback -0.17097284801774593 -1.8375026225032727 -2.67280082620291
upperback -0.19064291645251363 -2.404005791039589 1.7812948668413675
thorax 0.04824386508693812 -1.2151370677556097 3.2706945101153426
lowerneck -25.932334491997626 -1.768429950220313 -7.841300877857881
upperneck 26.041241690102193 0.10891081054115992 2.2091525357340074
head 13.027188316333795 -0.5258934405755367 2.281541431066373
rclavicle 2.756225104417852E-15 -1.7199695949006827E-15
rhumerus -33.92633977795231 -2.913260550590876 -78.17120516965646
rradius 28.775515226327084
rwrist 20.22114452770758
rhand -17.820208262034395 9.056699081934465
rfingers 7.125019999999949
rthumb 8.437864784141189 -20.779303524334182
lclavicle 1.904202427797713E-15 1.1784975561309076E-15
lhumerus -22.647612971125067 -8.64306749416508 91.21023546295197
lradius 65.07139218532262
lwrist 4.722617520343912
lhand -27.23228094209869 23.631222599316416
lfingers 7.125019999999983
lthumb -0.6667250583882423 53.741560422704275
rfemur -34.2186615113411 3.95419495506951 17.460557997485523
rtibia 28.23667267773207
rfoot -4.849604021326805 -12.051309855997836
rtoes -3.8605570840481365
lfemur 20.494306146444643 -4.932015652313649 -29.4259267958501
ltibia 18.203351436993568
lfoot -11.849344110767387 -7.108676202934133
ltoes -11.912158513449727
20
root 0 0 0 2.0127028772893087 -10.720203383952112 1.000976167459962
lowerback -0.03109605934521209 -1.8413104073040047 -2.6613406271991824
upperback -0.17753619638760382 -2.4061761185394017 1.8793421130371946
thorax -0.014340831134484588 -1.2176196008916338 3.370087214730491
lowerneck -26.482440842157875 -1.7714282614746208 -7.70603262819655
upperneck 24.540191185226604 0.1259895857034925 2.2698043025423855
head 12.58820854052407 -0.46737322760081135 2.2663771211552013
rclavicle 3.9899917601428316E-15 -2.0997459846046827E-15
rhumerus -34.25764986333365 -3.471288923666791 -77.9305176917499
rradius 28.546582963455574
rwrist 20.534991506567223
rhand -17.685744619106252 8.936697391410123
rfingers 7.125019999999954
rthumb 8.567119710725557 -20.884566481716103
lclavicle 1.6945067425365716E-15 7.130423768987826E-16
lhumerus -22.729527808316025 -8.865767718279836 91.22520017922447
lradius 65.1406277493982
lwrist 4.764095200739536
lhand -27.218469063014375 23.632322522559544
lfingers 7.125019999999982
lthumb -0.6536740653547426 53.74352553543374
rfemur -35.89913829850643 4.24454827817738 18.54305069494455
rtibia 26.092162566768405
rfoot -4.848138043142102 -11.63143318720289
rtoes -1.2571878433420753
lfemur 19.863117036554012 -3.781069442834132 -26.38318898462898
ltibia 29.66626702898074
lfoot -3.861478216037189 -12.52851665208018
ltoes -16.07268048114297
